<?xml version="1.0" encoding="utf-8"?>
<!-- Generator: Adobe Illustrator 19.0.0, SVG Export Plug-In . SVG Version: 6.00 Build 0)  -->
<svg version="1.1" id="Layer_1" xmlns="http://www.w3.org/2000/svg" xmlns:xlink="http://www.w3.org/1999/xlink" x="0px" y="0px"
	 viewBox="198 -95 1356 750" style="enable-background:new 198 -95 1356 750;" xml:space="preserve">
<style type="text/css">
	.st0{fill:none;stroke:#E5E5E5;stroke-miterlimit:10;}
	.st1{display:none;fill:none;stroke:#E5E5E5;stroke-miterlimit:10;}
	.st2{fill:none;stroke:#ACEC12;stroke-miterlimit:10;}
</style>
<path id="XMLID_1_" class="st0" d="M801.5-244V756 M502.5-255V772 M352.5-258V769 M202.5-257V770 M651.5-238V762 M951.5-255V745
	 M1100.5-242V758 M1250.5-243V757 M1400.5-243V757 M117,57.5h1442 M71-92.5h1488 M131,207.5h1428 M117,357.5h1442 M117,507.5h1442
	 M104,657.5h1455"/>
<path id="XMLID_2180_" class="st1" d="M995-341V659 M696-352V675 M546-355V672 M396-354V673 M845-335V665 M1145-352V648 M1294-339
	V661 M1444-340V660 M1594-340V660 M310-40h1442 M264-190h1488 M324,110h1428 M310,260h1442 M310,410h1442 M297,560h1455"/>
<path class="st2" d="M1444,560"/>
<path class="st2" d="M1444,560"/>
<path class="st2" d="M1444,560"/>
</svg>
